<svg xmlns="http://www.w3.org/2000/svg" width="800" height="1000" viewBox="0 0 800 1000">
  <defs>
    <linearGradient id="bg" x1="0" y1="0" x2="1" y2="1">
      <stop offset="0" stop-color="#fff1f2"/>
      <stop offset="0.55" stop-color="#ffe4e6"/>
      <stop offset="1" stop-color="#fff7fb"/>
    </linearGradient>
    <radialGradient id="petal" cx="60%" cy="35%" r="70%">
      <stop offset="0" stop-color="#ec4899" stop-opacity="0.55"/>
      <stop offset="1" stop-color="#ec4899" stop-opacity="0"/>
    </radialGradient>
    <filter id="soft" x="-20%" y="-20%" width="140%" height="140%">
      <feGaussianBlur stdDeviation="16"/>
    </filter>
  </defs>

  <rect width="800" height="1000" fill="url(#bg)"/>

  <g filter="url(#soft)" opacity="0.9">
    <circle cx="520" cy="160" r="260" fill="url(#petal)"/>
    <circle cx="220" cy="420" r="260" fill="url(#petal)"/>
    <circle cx="420" cy="860" r="340" fill="url(#petal)"/>
  </g>

  <g opacity="0.18" fill="none" stroke="#be185d" stroke-width="2">
    <path d="M120 640c160-230 360-290 550-210 120 52 150 160 90 300" />
    <path d="M120 760c120-150 260-220 420-210 150 10 240 90 250 240" />
    <path d="M110 910c160-85 330-115 500-90 100 18 160 55 210 105" />
  </g>

  <g opacity="0.14" fill="#be185d">
    <circle cx="520" cy="420" r="3"/>
    <circle cx="555" cy="455" r="2.5"/>
    <circle cx="490" cy="480" r="2"/>
    <circle cx="310" cy="600" r="3"/>
    <circle cx="345" cy="635" r="2.5"/>
    <circle cx="280" cy="655" r="2"/>
  </g>

  <text x="40" y="950" font-family="ui-sans-serif, system-ui" font-size="22" fill="#9d174d" opacity="0.5">
    IMAYKANA " placeholder
  </text>
</svg>

