<svg xmlns="http://www.w3.org/2000/svg" width="800" height="1000" viewBox="0 0 800 1000">
  <defs>
    <linearGradient id="bg" x1="0" y1="0" x2="1" y2="1">
      <stop offset="0" stop-color="#faf5ff"/>
      <stop offset="0.55" stop-color="#f3e8ff"/>
      <stop offset="1" stop-color="#fff7fb"/>
    </linearGradient>
    <radialGradient id="petal" cx="70%" cy="25%" r="70%">
      <stop offset="0" stop-color="#a78bfa" stop-opacity="0.55"/>
      <stop offset="1" stop-color="#a78bfa" stop-opacity="0"/>
    </radialGradient>
    <filter id="soft" x="-20%" y="-20%" width="140%" height="140%">
      <feGaussianBlur stdDeviation="16"/>
    </filter>
  </defs>

  <rect width="800" height="1000" fill="url(#bg)"/>

  <g filter="url(#soft)" opacity="0.9">
    <circle cx="640" cy="160" r="260" fill="url(#petal)"/>
    <circle cx="170" cy="300" r="230" fill="url(#petal)"/>
    <circle cx="420" cy="840" r="340" fill="url(#petal)"/>
  </g>

  <g opacity="0.2" fill="none" stroke="#7c3aed" stroke-width="2">
    <path d="M90 650c140-220 330-290 520-240 150 40 200 160 140 300" />
    <path d="M120 720c120-140 250-210 390-200 140 12 220 90 220 240" />
    <path d="M130 900c140-80 280-110 420-90 110 16 180 60 220 110" />
  </g>

  <g opacity="0.16" fill="#7c3aed">
    <circle cx="510" cy="360" r="3"/>
    <circle cx="545" cy="395" r="2.5"/>
    <circle cx="485" cy="420" r="2"/>
    <circle cx="265" cy="540" r="3"/>
    <circle cx="300" cy="575" r="2.5"/>
    <circle cx="235" cy="595" r="2"/>
    <circle cx="395" cy="250" r="2.5"/>
  </g>

  <text x="40" y="950" font-family="ui-sans-serif, system-ui" font-size="22" fill="#4c1d95" opacity="0.5">
    IMAYKANA " placeholder
  </text>
</svg>

