<svg xmlns="http://www.w3.org/2000/svg" width="800" height="1000" viewBox="0 0 800 1000">
  <defs>
    <linearGradient id="bg" x1="0" y1="0" x2="1" y2="1">
      <stop offset="0" stop-color="#fff1f5"/>
      <stop offset="0.55" stop-color="#ffe4ee"/>
      <stop offset="1" stop-color="#fff7fb"/>
    </linearGradient>
    <radialGradient id="petal" cx="30%" cy="20%" r="70%">
      <stop offset="0" stop-color="#fb7185" stop-opacity="0.55"/>
      <stop offset="1" stop-color="#fb7185" stop-opacity="0"/>
    </radialGradient>
    <filter id="soft" x="-20%" y="-20%" width="140%" height="140%">
      <feGaussianBlur stdDeviation="14"/>
    </filter>
  </defs>

  <rect width="800" height="1000" fill="url(#bg)"/>

  <g filter="url(#soft)" opacity="0.9">
    <circle cx="120" cy="140" r="220" fill="url(#petal)"/>
    <circle cx="660" cy="220" r="260" fill="url(#petal)"/>
    <circle cx="420" cy="860" r="320" fill="url(#petal)"/>
  </g>

  <g opacity="0.22" fill="none" stroke="#fb7185" stroke-width="2">
    <path d="M140 820c60-160 210-260 360-240 150 18 200 130 170 240" />
    <path d="M110 740c120-170 270-240 420-210 110 20 170 90 170 210" />
    <path d="M120 900c120-60 220-80 330-70 140 14 220 60 270 120" />
  </g>

  <g opacity="0.18" fill="#fb7185">
    <circle cx="210" cy="350" r="4"/>
    <circle cx="245" cy="390" r="3"/>
    <circle cx="285" cy="330" r="2.5"/>
    <circle cx="580" cy="520" r="3"/>
    <circle cx="615" cy="560" r="2.5"/>
    <circle cx="560" cy="585" r="2"/>
    <circle cx="410" cy="240" r="2.5"/>
    <circle cx="450" cy="260" r="2"/>
  </g>

  <text x="40" y="950" font-family="ui-sans-serif, system-ui" font-size="22" fill="#9f1239" opacity="0.55">
    IMAYKANA " placeholder
  </text>
</svg>

