<svg xmlns="http://www.w3.org/2000/svg" width="800" height="1000" viewBox="0 0 800 1000">
  <defs>
    <linearGradient id="bg" x1="0" y1="0" x2="1" y2="1">
      <stop offset="0" stop-color="#fffdf7"/>
      <stop offset="0.55" stop-color="#fff7ed"/>
      <stop offset="1" stop-color="#fff7fb"/>
    </linearGradient>
    <radialGradient id="petal" cx="25%" cy="25%" r="70%">
      <stop offset="0" stop-color="#fb7185" stop-opacity="0.35"/>
      <stop offset="1" stop-color="#fb7185" stop-opacity="0"/>
    </radialGradient>
    <filter id="soft" x="-20%" y="-20%" width="140%" height="140%">
      <feGaussianBlur stdDeviation="18"/>
    </filter>
  </defs>

  <rect width="800" height="1000" fill="url(#bg)"/>

  <g filter="url(#soft)" opacity="0.85">
    <circle cx="180" cy="200" r="280" fill="url(#petal)"/>
    <circle cx="660" cy="360" r="300" fill="url(#petal)"/>
    <circle cx="420" cy="860" r="360" fill="url(#petal)"/>
  </g>

  <g opacity="0.18" fill="none" stroke="#9f1239" stroke-width="2">
    <path d="M140 600c110-160 260-230 430-210 150 16 220 120 170 260" />
    <path d="M110 720c140-160 290-220 460-190 120 22 200 90 210 210" />
    <path d="M120 910c140-70 280-95 420-78 120 14 200 56 250 110" />
  </g>

  <g opacity="0.12" fill="#9f1239">
    <circle cx="210" cy="460" r="3"/>
    <circle cx="255" cy="490" r="2.5"/>
    <circle cx="295" cy="455" r="2"/>
    <circle cx="570" cy="610" r="2.5"/>
    <circle cx="610" cy="635" r="2"/>
    <circle cx="420" cy="310" r="2.5"/>
  </g>

  <text x="40" y="950" font-family="ui-sans-serif, system-ui" font-size="22" fill="#7f1d1d" opacity="0.45">
    IMAYKANA " placeholder
  </text>
</svg>

